<svg width="24" height="28" viewBox="0 0 24 28" fill="none" xmlns="http://www.w3.org/2000/svg">
<g clip-path="url(#clip0_560_3424)">
<path d="M3 5L4.25 25C4.30937 26.1556 5.15 27 6.25 27H17.75C18.8544 27 19.6794 26.1556 19.75 25L21 5" stroke="black" stroke-width="2" stroke-linecap="round" stroke-linejoin="round"/>
<path d="M1 5H23Z" fill="black"/>
<path d="M1 5H23" stroke="black" stroke-width="2" stroke-miterlimit="10" stroke-linecap="round"/>
<path d="M8 5.00001V2.50001C7.99942 2.30286 8.03783 2.10755 8.113 1.9253C8.18818 1.74305 8.29865 1.57746 8.43805 1.43806C8.57746 1.29866 8.74304 1.18819 8.92529 1.11301C9.10754 1.03783 9.30286 0.999429 9.5 1.00001H14.5C14.6971 0.999429 14.8925 1.03783 15.0747 1.11301C15.257 1.18819 15.4225 1.29866 15.5619 1.43806C15.7014 1.57746 15.8118 1.74305 15.887 1.9253C15.9622 2.10755 16.0006 2.30286 16 2.50001V5.00001M12 9.00001V23M7.5 9.00001L8 23M16.5 9.00001L16 23" stroke="black" stroke-width="2" stroke-linecap="round" stroke-linejoin="round"/>
</g>
<defs>
<clipPath id="clip0_560_3424">
<rect width="24" height="28" fill="white"/>
</clipPath>
</defs>
</svg>
