<svg width="15" height="15" viewBox="0 0 16 17" fill="none" xmlns="http://www.w3.org/2000/svg">
<path d="M7.55 0.949951C3.38044 0.949951 0 4.33039 0 8.49995C0 12.6695 3.38044 16.05 7.55 16.05C11.7196 16.05 15.1 12.6695 15.1 8.49995C15.1 4.33039 11.7196 0.949951 7.55 0.949951ZM11.0346 9.66149H7.55C7.39597 9.66149 7.24825 9.6003 7.13933 9.49139C7.03042 9.38247 6.96923 9.23475 6.96923 9.08072V3.8538C6.96923 3.69977 7.03042 3.55205 7.13933 3.44313C7.24825 3.33422 7.39597 3.27303 7.55 3.27303C7.70403 3.27303 7.85175 3.33422 7.96067 3.44313C8.06958 3.55205 8.13077 3.69977 8.13077 3.8538V8.49995H11.0346C11.1886 8.49995 11.3364 8.56114 11.4453 8.67005C11.5542 8.77897 11.6154 8.92669 11.6154 9.08072C11.6154 9.23475 11.5542 9.38247 11.4453 9.49139C11.3364 9.6003 11.1886 9.66149 11.0346 9.66149Z" fill="white"/>
</svg>
