<svg width="29" height="29" viewBox="0 0 29 29" fill="none" xmlns="http://www.w3.org/2000/svg">
<path id="Vector" fill-rule="evenodd" clip-rule="evenodd" d="M0.764404 14.5001C0.764404 6.8979 6.9272 0.735107 14.5294 0.735107C22.1315 0.735107 28.2944 6.8979 28.2944 14.5001C28.2944 22.1022 22.1315 28.2651 14.5294 28.2651C6.9272 28.2651 0.764404 22.1022 0.764404 14.5001ZM19.8043 18.0167C19.3825 18.6492 18.5279 18.8201 17.8954 18.3985L14.3162 16.0123C13.5894 15.5278 13.1529 14.7122 13.1529 13.8388V13.8119V7.61761C13.1529 6.85739 13.7692 6.24111 14.5294 6.24111C15.2896 6.24111 15.9059 6.85739 15.9059 7.61761V13.7634L19.4224 16.1077C20.055 16.5295 20.2259 17.3842 19.8043 18.0167Z" fill="white"/>
</svg>
