<svg width="15" height="15" viewBox="0 0 15 17" fill="none" xmlns="http://www.w3.org/2000/svg">
<path d="M5.25 0.94751H1.5C0.671573 0.94751 0 1.62378 0 2.458V7.74471C0 8.57893 0.671573 9.2552 1.5 9.2552H5.25C6.07843 9.2552 6.75 8.57893 6.75 7.74471V2.458C6.75 1.62378 6.07843 0.94751 5.25 0.94751Z" fill="white"/>
<path d="M13.5 0.94751H9.75C8.92157 0.94751 8.25 1.62378 8.25 2.458V4.72373C8.25 5.55795 8.92157 6.23422 9.75 6.23422H13.5C14.3284 6.23422 15 5.55795 15 4.72373V2.458C15 1.62378 14.3284 0.94751 13.5 0.94751Z" fill="white"/>
<path d="M5.25 10.7656H1.5C0.671573 10.7656 0 11.4419 0 12.2761V14.5418C0 15.3761 0.671573 16.0523 1.5 16.0523H5.25C6.07843 16.0523 6.75 15.3761 6.75 14.5418V12.2761C6.75 11.4419 6.07843 10.7656 5.25 10.7656Z" fill="white"/>
<path d="M13.5 7.74463H9.75C8.92157 7.74463 8.25 8.4209 8.25 9.25512V14.5418C8.25 15.3761 8.92157 16.0523 9.75 16.0523H13.5C14.3284 16.0523 15 15.3761 15 14.5418V9.25512C15 8.4209 14.3284 7.74463 13.5 7.74463Z" fill="white"/>
</svg>
