<svg width="26" height="26" viewBox="0 0 26 26" fill="none" xmlns="http://www.w3.org/2000/svg">
<path d="M21 11.0002V22.5002C21 22.8285 20.9353 23.1536 20.8097 23.4569C20.684 23.7603 20.4999 24.0358 20.2677 24.268C20.0356 24.5001 19.76 24.6843 19.4567 24.8099C19.1534 24.9356 18.8283 25.0002 18.5 25.0002H3.49999C2.83695 25.0002 2.20107 24.7368 1.73223 24.268C1.26339 23.7992 1 23.1633 1 22.5002V7.50024C1 6.8372 1.26339 6.20132 1.73223 5.73248C2.20107 5.26364 2.83695 5.00024 3.49999 5.00024H13.9675" stroke="white" stroke-width="1.27999" stroke-linecap="round" stroke-linejoin="round"/>
<path d="M25.7462 0.328143C25.6549 0.227794 25.5442 0.147003 25.4207 0.0906528C25.2973 0.0343027 25.1637 0.00356322 25.0281 0.000291804C24.8924 -0.00297961 24.7575 0.0212849 24.6315 0.0716194C24.5055 0.121954 24.391 0.197313 24.295 0.293143L23.5219 1.06252C23.4282 1.15628 23.3755 1.2834 23.3755 1.41595C23.3755 1.54851 23.4282 1.67563 23.5219 1.76939L24.2306 2.47689C24.2771 2.52357 24.3323 2.56061 24.3931 2.58588C24.4539 2.61115 24.5191 2.62416 24.585 2.62416C24.6508 2.62416 24.716 2.61115 24.7769 2.58588C24.8377 2.56061 24.8929 2.52357 24.9394 2.47689L25.6931 1.72689C26.0744 1.34627 26.11 0.726268 25.7462 0.328143ZM21.9587 2.62502L10.6763 13.8875C10.6079 13.9556 10.5581 14.0402 10.5319 14.1331L10.01 15.6875C9.99751 15.7297 9.99663 15.7745 10.0075 15.8171C10.0183 15.8597 10.0404 15.8986 10.0715 15.9298C10.1026 15.9609 10.1415 15.983 10.1842 15.9938C10.2268 16.0046 10.2716 16.0038 10.3138 15.9913L11.8669 15.4694C11.9598 15.4431 12.0444 15.3934 12.1125 15.325L23.375 4.04127C23.4792 3.93595 23.5376 3.79379 23.5376 3.64564C23.5376 3.49749 23.4792 3.35533 23.375 3.25002L22.7531 2.62502C22.6477 2.51987 22.5048 2.46082 22.3559 2.46082C22.207 2.46082 22.0642 2.51987 21.9587 2.62502Z" fill="white"/>
</svg>
