<svg width="524" height="166" viewBox="0 0 524 166" fill="none" xmlns="http://www.w3.org/2000/svg">
<path d="M254.268 51.8366H126.849V165.694H254.268C271.937 165.694 286.276 151.34 286.276 133.652V83.8784C286.276 66.191 271.952 51.8366 254.268 51.8366ZM238.998 139.568C238.998 147.736 232.384 154.358 224.225 154.358H174.112V63.173H224.225C232.384 63.173 238.998 69.7943 238.998 77.9625V139.568ZM14.7743 51.8366H107.17V63.173H49.7227C49.3992 63.1721 49.0787 63.2352 48.7797 63.3587C48.4806 63.4821 48.209 63.6635 47.9803 63.8924C47.7517 64.1212 47.5706 64.3931 47.4474 64.6922C47.3243 64.9914 47.2615 65.3119 47.2628 65.6354V101.115H107.17V112.451H47.2779V165.679H0V66.6261C0 58.4583 6.61468 51.8366 14.7743 51.8366ZM474.998 21.8671C490.583 16.0564 507.064 8.92472 524 0.306152V165.694H476.738V42.4226L439.869 110.454V165.679H392.591V64.104L355.723 132.136V165.694H308.445V66.6114C308.445 58.6085 314.805 52.0769 322.8 51.8366C333.869 51.5063 344.849 50.5905 355.723 49.5093V108.352L390.146 44.84C406.316 42.062 423.04 38.2634 439.869 33.4438V86.6859L475.014 21.8675L474.998 21.8671Z" fill="white"/>
</svg>
