<svg width="30" height="30" viewBox="0 0 30 30" fill="none" xmlns="http://www.w3.org/2000/svg">
<path d="M21.1293 2.95655C22.7303 2.96133 24.2644 3.59944 25.3965 4.73152C26.5285 5.8636 27.1667 7.39766 27.1714 8.99865V21.0816C27.1667 22.6825 26.5285 24.2166 25.3965 25.3487C24.2644 26.4808 22.7303 27.1189 21.1293 27.1236H9.04644C7.44545 27.1189 5.91139 26.4808 4.77931 25.3487C3.64723 24.2166 3.00912 22.6825 3.00434 21.0816V8.99865C3.00912 7.39766 3.64723 5.8636 4.77931 4.73152C5.91139 3.59944 7.44545 2.96133 9.04644 2.95655H21.1293ZM21.1293 0.5401H9.04644C4.39414 0.5401 0.587891 4.34635 0.587891 8.99865V21.0816C0.587891 25.7338 4.39414 29.5401 9.04644 29.5401H21.1293C25.7816 29.5401 29.5879 25.7338 29.5879 21.0816V8.99865C29.5879 4.34635 25.7816 0.5401 21.1293 0.5401Z" fill="white"/>
<path d="M22.9414 8.99866C22.5829 8.99866 22.2325 8.89236 21.9344 8.6932C21.6364 8.49404 21.4041 8.21096 21.2669 7.87977C21.1297 7.54858 21.0938 7.18415 21.1637 6.83256C21.2337 6.48097 21.4063 6.15801 21.6598 5.90453C21.9133 5.65104 22.2362 5.47842 22.5878 5.40848C22.9394 5.33855 23.3038 5.37444 23.635 5.51163C23.9662 5.64881 24.2493 5.88112 24.4484 6.17919C24.6476 6.47725 24.7539 6.82768 24.7539 7.18616C24.7544 7.42432 24.7079 7.66024 24.617 7.88038C24.5261 8.10051 24.3926 8.30052 24.2242 8.46893C24.0558 8.63734 23.8558 8.77083 23.6356 8.86173C23.4155 8.95264 23.1796 8.99917 22.9414 8.99866Z" fill="white"/>
<path d="M15.0869 10.2066C16.0429 10.2066 16.9774 10.49 17.7723 11.0212C18.5672 11.5523 19.1867 12.3072 19.5525 13.1904C19.9184 14.0736 20.0141 15.0455 19.8276 15.9831C19.6411 16.9207 19.1807 17.7819 18.5048 18.4579C17.8288 19.1339 16.9675 19.5943 16.0299 19.7808C15.0923 19.9673 14.1204 19.8716 13.2372 19.5057C12.354 19.1399 11.5991 18.5203 11.068 17.7255C10.5369 16.9306 10.2534 15.9961 10.2534 15.0401C10.2547 13.7586 10.7644 12.5299 11.6706 11.6238C12.5768 10.7176 13.8054 10.2079 15.0869 10.2066ZM15.0869 7.7901C13.653 7.7901 12.2513 8.2153 11.059 9.01194C9.86678 9.80858 8.93753 10.9409 8.38879 12.2656C7.84006 13.5904 7.69648 15.0481 7.97622 16.4545C8.25597 17.8609 8.94646 19.1527 9.96039 20.1666C10.9743 21.1806 12.2661 21.871 13.6725 22.1508C15.0789 22.4305 16.5366 22.287 17.8614 21.7382C19.1861 21.1895 20.3184 20.2602 21.1151 19.068C21.9117 17.8757 22.3369 16.474 22.3369 15.0401C22.3369 13.1173 21.5731 11.2732 20.2134 9.91358C18.8538 8.55394 17.0097 7.7901 15.0869 7.7901Z" fill="white"/>
</svg>
