<svg width="30" height="30" viewBox="0 0 30 30" fill="none" xmlns="http://www.w3.org/2000/svg">
<path d="M27.4746 0.5401H3.27189C1.94941 0.5401 0.793945 1.49166 0.793945 2.7986V27.055C0.793945 28.3691 1.94941 29.5401 3.27189 29.5401H27.4675C28.7971 29.5401 29.7939 28.3613 29.7939 27.055V2.7986C29.8017 1.49166 28.7971 0.5401 27.4746 0.5401ZM9.7833 24.713H5.62879V11.7957H9.7833V24.713ZM7.84975 9.83175H7.81997C6.49037 9.83175 5.62944 8.842 5.62944 7.60302C5.62944 6.34139 6.51303 5.37494 7.87241 5.37494C9.23178 5.37494 10.0636 6.33427 10.0934 7.60302C10.0927 8.842 9.23178 9.83175 7.84975 9.83175ZM24.9669 24.713H20.8124V17.6501C20.8124 15.958 20.2078 14.8019 18.7047 14.8019C17.5563 14.8019 16.8766 15.5787 16.5743 16.3354C16.4611 16.6073 16.4306 16.9775 16.4306 17.3556V24.713H12.2761V11.7957H16.4306V13.5933C17.0352 12.7324 17.9797 11.4934 20.1773 11.4934C22.9045 11.4934 24.9675 13.291 24.9675 17.1666L24.9669 24.713Z" fill="white"/>
</svg>
