<svg width="195" height="20" viewBox="0 0 195 21" fill="none" xmlns="http://www.w3.org/2000/svg">
<path d="M17.6535 0.580078V2.57179H12.2357V20.4028H5.45095V2.57179H0V0.580078H17.6535Z" fill="#1B143E"/>
<path d="M26.7991 0.683098V16.986C26.7991 18.8746 25.3246 20.4028 23.5021 20.4028H20.4949C20.4452 20.4028 20.3955 20.3598 20.3955 20.2998V3.9969C20.3955 2.1082 21.8701 0.580078 23.6926 0.580078H26.6997C26.7494 0.580078 26.7991 0.623003 26.7991 0.683098Z" fill="#1B143E"/>
<path d="M52.1898 0.580078V20.4028H46.0181V6.60673L41.7186 20.4028H38.1482L33.7327 6.83852V20.4028H31.5789V0.580078H38.0819L41.8677 12.5475L45.6204 0.580078H52.1815H52.1898Z" fill="#1B143E"/>
<path d="M71.3511 0.580078V2.57179H63.4481V8.57268H70.0919V10.5644H63.4481V18.4196H72.6931V20.4114H57.0444V0.580078H71.3511Z" fill="#1B143E"/>
<path d="M90.0484 4.64925C90.1975 5.43906 89.6921 6.21171 88.9217 6.34048L87.2069 6.62379C87.3395 6.09152 87.3974 5.6451 87.3974 5.28453C87.3974 2.98376 85.84 1.82479 82.7252 1.82479C80.2648 1.82479 79.0388 2.61461 79.0388 4.20283C79.0388 5.39614 80.4139 6.41775 83.1643 7.26766C88.4661 8.90739 91.117 11.3198 91.117 14.5305C91.117 16.4107 90.3714 17.913 88.8886 19.0548C87.4057 20.1966 85.4258 20.7632 82.9572 20.7632C77.4896 20.7632 74.7642 18.8574 74.7642 15.0542C74.7642 15.0542 74.7642 15.0542 74.7642 15.0456C74.7642 14.3846 75.2364 13.8266 75.8659 13.7064L75.9736 13.6806C76.8435 13.5089 77.647 14.2301 77.589 15.1401C77.589 15.2603 77.5808 15.3719 77.5808 15.4835C77.5808 17.9388 79.1465 19.175 82.2861 19.175C84.7962 19.175 86.0554 18.2908 86.0554 16.5137C86.0554 15.2002 84.556 14.0412 81.5489 13.0453C77.208 11.6117 75.0375 9.31947 75.0375 6.17737C75.0375 4.3917 75.7583 2.95801 77.208 1.86772C78.6577 0.777425 80.563 0.236572 82.924 0.236572C87.1241 0.236572 89.5016 1.7046 90.0649 4.64066L90.0484 4.64925Z" fill="#1B143E"/>
<path d="M94.9856 20.4028V0.580078H104.504C109.905 0.580078 112.606 2.52028 112.606 6.40069C112.606 10.2811 109.607 12.2814 103.601 12.2814H101.389V20.4028H94.9856ZM101.389 10.4528H102.831C105.158 10.4528 106.327 9.07061 106.327 6.29767C106.327 3.70501 105.158 2.40868 102.831 2.40868H101.389V10.4528Z" fill="#1B143E"/>
<path d="M127.427 10.5386V20.4028H133.83V0.580078H127.427V5.23313C127.427 7.07031 125.993 8.55551 124.221 8.55551H122.208V0.580078H115.804V20.4028H122.208V13.8524C122.208 12.0238 123.632 10.5472 125.397 10.5472H127.427V10.5386Z" fill="#1B143E"/>
<path d="M152.983 0.580078V2.57179H145.08V8.57268H151.724V10.5644H145.08V18.4196H154.325V20.4114H138.676V0.580078H152.983Z" fill="#1B143E"/>
<path d="M157.39 20.4028V0.580078H166.883C169.352 0.580078 171.324 1.04367 172.798 1.97943C174.273 2.91519 175.01 4.16859 175.01 5.73106C175.01 8.13485 173.428 9.69731 170.255 10.4185C171.879 10.9593 172.939 11.5603 173.42 12.2041C173.9 12.8566 174.223 14.11 174.397 15.9815C174.604 18.205 175.018 19.6816 175.64 20.3942H168.689C168.25 19.4756 168.027 18.3252 168.027 16.9516L167.994 15.7755L167.96 14.2903C167.96 12.0067 166.933 10.8649 164.887 10.8649H163.785V20.3942H157.382L157.39 20.4028ZM163.794 9.23373H165.086C167.513 9.23373 168.723 8.10051 168.723 5.82549C168.723 3.55048 167.513 2.40868 165.086 2.40868H163.794V9.23373Z" fill="#1B143E"/>
<path d="M193.658 0.580078V2.57179H185.755V8.57268H192.399V10.5644H185.755V18.4196H195V20.4114H179.351V0.580078H193.658Z" fill="#1B143E"/>
</svg>
