<svg width="24" height="25" viewBox="0 0 24 25" fill="none" xmlns="http://www.w3.org/2000/svg">
<g id="Frame">
<path id="Vector" d="M5.75988 19.9748C6.9173 17.7047 9.27709 16.15 12 16.15C14.7019 16.15 17.0462 17.6808 18.2131 19.9223M14.3333 10.5944C14.3333 11.9445 13.2389 13.0389 11.8889 13.0389C10.5389 13.0389 9.44444 11.9445 9.44444 10.5944C9.44444 9.24444 10.5389 8.15002 11.8889 8.15002C13.2389 8.15002 14.3333 9.24444 14.3333 10.5944ZM12 22.15C6.47715 22.15 2 17.6728 2 12.15C2 6.62717 6.47715 2.15002 12 2.15002C17.5228 2.15002 22 6.62717 22 12.15C22 17.6728 17.5228 22.15 12 22.15Z" stroke="#0075FF" stroke-opacity="0.95" stroke-width="1.5" stroke-linecap="round" stroke-linejoin="round"/>
</g>
</svg>
