<svg width="15" height="15" viewBox="0 0 18 17" fill="none" xmlns="http://www.w3.org/2000/svg">
<path d="M17.4731 5.59611C17.4725 4.98019 17.2275 4.3897 16.792 3.95418C16.3565 3.51867 15.766 3.2737 15.15 3.27303H13.4077V2.69226C13.4073 2.23032 13.2235 1.78743 12.8969 1.46079C12.5703 1.13415 12.1274 0.950432 11.6654 0.949951H5.85774C5.3958 0.950432 4.95292 1.13415 4.62627 1.46079C4.29963 1.78743 4.11591 2.23032 4.11543 2.69226V3.27303H2.37313C1.75721 3.2737 1.16672 3.51867 0.731205 3.95418C0.295689 4.3897 0.0507214 4.98019 0.0500488 5.59611V7.33841H17.4731V5.59611ZM12.2462 3.27303H5.27697V2.69226C5.27697 2.53823 5.33816 2.39051 5.44708 2.28159C5.55599 2.17268 5.70371 2.11149 5.85774 2.11149H11.6654C11.8195 2.11149 11.9672 2.17268 12.0761 2.28159C12.185 2.39051 12.2462 2.53823 12.2462 2.69226V3.27303ZM11.6654 8.79034C11.6654 9.02138 11.5737 9.24296 11.4103 9.40633C11.2469 9.56971 11.0253 9.66149 10.7943 9.66149H6.7289C6.49785 9.66149 6.27627 9.56971 6.1129 9.40633C5.94952 9.24296 5.85774 9.02138 5.85774 8.79034V8.64514C5.85774 8.60664 5.84244 8.56971 5.81522 8.54248C5.78799 8.51525 5.75106 8.49995 5.71255 8.49995H0.0500488V13.7269C0.0500488 14.343 0.294801 14.9339 0.730462 15.3695C1.16612 15.8052 1.75701 16.05 2.37313 16.05H15.15C15.7662 16.05 16.357 15.8052 16.7927 15.3695C17.2284 14.9339 17.4731 14.343 17.4731 13.7269V8.49995H11.8106C11.7721 8.49995 11.7352 8.51525 11.708 8.54248C11.6807 8.56971 11.6654 8.60664 11.6654 8.64514V8.79034Z" fill="white"/>
</svg>
