<svg width="29" height="34" viewBox="0 0 29 34" fill="none" xmlns="http://www.w3.org/2000/svg">
<path d="M25.3886 7.69598C25.1628 7.57926 24.9429 7.45131 24.7299 7.3126C24.1104 6.90306 23.5424 6.42049 23.0382 5.87529C21.7765 4.43171 21.3053 2.96722 21.1317 1.94186H21.1387C20.9937 1.09077 21.0537 0.5401 21.0627 0.5401H15.3163V22.7605C15.3163 23.0589 15.3163 23.3537 15.3037 23.6451C15.3037 23.6813 15.3002 23.7148 15.2982 23.7538C15.2982 23.7699 15.2982 23.7866 15.2947 23.8033V23.8159C15.2341 24.6131 14.9785 25.3833 14.5504 26.0586C14.1224 26.7339 13.5349 27.2937 12.8397 27.6887C12.1151 28.1009 11.2956 28.3171 10.462 28.316C7.78469 28.316 5.61479 26.1329 5.61479 23.4367C5.61479 20.7405 7.78469 18.5574 10.462 18.5574C10.9689 18.5569 11.4726 18.6366 11.9544 18.7937L11.9614 12.9426C10.4985 12.7537 9.01242 12.8699 7.59675 13.2841C6.18108 13.6982 4.86661 14.4013 3.73625 15.3489C2.74579 16.2094 1.91311 17.2362 1.27567 18.3831C1.0331 18.8013 0.117879 20.4819 0.00704844 23.2094C-0.0626562 24.7576 0.402274 26.3615 0.623935 27.0244V27.0383C0.763344 27.4287 1.30355 28.7607 2.18392 29.8837C2.89382 30.7844 3.73254 31.5757 4.67308 32.232V32.2181L4.68702 32.232C7.46893 34.1224 10.5534 33.9983 10.5534 33.9983C11.0873 33.9767 12.8759 33.9983 14.9071 33.0357C17.16 31.9685 18.4425 30.3786 18.4425 30.3786C19.2619 29.4285 19.9134 28.3459 20.3692 27.177C20.8892 25.8101 21.0627 24.1707 21.0627 23.5154V11.727C21.1324 11.7688 22.0609 12.3829 22.0609 12.3829C22.0609 12.3829 23.3985 13.2403 25.4855 13.7986C26.9827 14.1959 29 14.2796 29 14.2796V8.57495C28.2932 8.65163 26.858 8.42858 25.3886 7.69598Z" fill="white"/>
</svg>
