<svg xmlns="http://www.w3.org/2000/svg" width="30" height="30" viewBox="0 0 29 31" fill="none">
    <path d="M14.5309 17.7942C15.1644 17.7942 15.678 17.2806 15.678 16.6471C15.678 16.0136 15.1644 15.5 14.5309 15.5C13.8974 15.5 13.3838 16.0136 13.3838 16.6471C13.3838 17.2806 13.8974 17.7942 14.5309 17.7942Z" fill="white"/>
    <path d="M16.2515 2.9896V2.30852C16.2515 1.85218 16.0702 1.41453 15.7475 1.09185C15.4249 0.76917 14.9872 0.587891 14.5309 0.587891C14.0745 0.587891 13.6369 0.76917 13.3142 1.09185C12.9915 1.41453 12.8102 1.85218 12.8102 2.30852V2.9896C10.6374 3.26237 8.56169 4.05229 6.75723 5.29308L5.99944 4.53099C5.6762 4.20775 5.23779 4.02615 4.78067 4.02615C4.32354 4.02615 3.88513 4.20775 3.56189 4.53099C3.23865 4.85423 3.05706 5.29263 3.05706 5.74976C3.05706 6.20689 3.23865 6.6453 3.56189 6.96854L4.17845 7.5851C1.97619 10.0899 0.762883 13.3118 0.765875 16.6471C0.765875 24.2372 6.94077 30.4121 14.5309 30.4121C22.121 30.4121 28.2959 24.2372 28.2959 16.6471C28.2959 9.63981 23.0322 3.83844 16.2515 2.9896ZM14.5309 20.0883C13.7193 20.0881 12.9339 19.801 12.3134 19.2778C11.693 18.7546 11.2774 18.0289 11.1402 17.229C11.0029 16.4291 11.1528 15.6064 11.5634 14.9063C11.9739 14.2062 12.6187 13.6737 13.3838 13.403V8.04393C13.3838 7.73971 13.5046 7.44794 13.7198 7.23282C13.9349 7.0177 14.2266 6.89685 14.5309 6.89685C14.8351 6.89685 15.1269 7.0177 15.342 7.23282C15.5571 7.44794 15.678 7.73971 15.678 8.04393V13.403C16.4431 13.6737 17.0878 14.2062 17.4984 14.9063C17.9089 15.6064 18.0588 16.4291 17.9216 17.229C17.7843 18.0289 17.3688 18.7546 16.7483 19.2778C16.1279 19.801 15.3425 20.0881 14.5309 20.0883Z" fill="white"/>
</svg>