<svg width="30" height="24" viewBox="0 0 30 24" fill="none" xmlns="http://www.w3.org/2000/svg">
<path d="M29.3818 3.28907C28.294 3.76174 27.143 4.07315 25.9653 4.21344C27.203 3.48867 28.1338 2.33724 28.5831 0.97511C27.4129 1.65938 26.1348 2.1395 24.8035 2.3949C24.2429 1.80737 23.5686 1.33997 22.8218 1.02111C22.0749 0.70226 21.271 0.538609 20.4589 0.54011C17.171 0.54011 14.5103 3.16219 14.5103 6.39448C14.5079 6.84408 14.5595 7.29235 14.6637 7.72969C12.3061 7.61917 9.99747 7.01773 7.88558 5.96387C5.77368 4.91 3.90503 3.42691 2.39915 1.60949C1.87085 2.5001 1.59146 3.51626 1.59017 4.55178C1.59017 6.58178 2.64927 8.37615 4.2485 9.4274C3.301 9.40492 2.37292 9.15414 1.54304 8.69636V8.76886C1.54304 11.6084 3.59721 13.9707 6.31596 14.5084C5.80471 14.6447 5.27786 14.7138 4.74875 14.7139C4.37331 14.7145 3.99872 14.6781 3.63044 14.6051C4.38625 16.9312 6.58602 18.6228 9.19179 18.6712C7.07442 20.303 4.47483 21.1849 1.80163 21.1784C1.32713 21.1777 0.853065 21.1495 0.381836 21.0939C3.1013 22.8304 6.26246 23.7489 9.48904 23.7401C20.4462 23.7401 26.4323 14.8166 26.4323 7.07719C26.4323 6.82344 26.4256 6.56969 26.4136 6.32199C27.5754 5.49552 28.5806 4.46847 29.3818 3.28907Z" fill="white"/>
</svg>
